<?xml version="1.0" standalone="no"?>
<!DOCTYPE svg PUBLIC "-//W3C//DTD SVG 20010904//EN"
 "http://www.w3.org/TR/2001/REC-SVG-20010904/DTD/svg10.dtd">
<svg version="1.0" xmlns="http://www.w3.org/2000/svg"
 width="200.000000pt" height="200.000000pt" viewBox="0 0 200.000000 200.000000"
 preserveAspectRatio="xMidYMid meet">
<metadata>
Created by potrace 1.11, written by Peter Selinger 2001-2013
</metadata>
<g transform="translate(0.000000,200.000000) scale(0.100000,-0.100000)"
fill="#000000" stroke="none">
<path d="M205 1982 c-99 -34 -174 -117 -195 -215 -8 -36 -10 -276 -8 -797 3
-738 3 -745 24 -791 28 -60 93 -125 153 -153 46 -21 49 -21 821 -21 772 0 775
0 821 21 60 28 125 93 153 153 21 46 21 49 21 821 0 772 0 775 -21 821 -28 60
-93 125 -153 153 -46 21 -52 21 -806 23 -701 2 -764 1 -810 -15z m451 -188
c45 -22 78 -88 68 -141 -9 -50 -57 -98 -107 -107 -53 -10 -119 23 -141 68 -58
122 58 238 180 180z m645 -56 c93 -46 170 -121 212 -208 27 -56 32 -79 35
-163 4 -83 1 -107 -18 -160 -26 -72 -62 -126 -119 -182 l-41 -39 53 -56 c101
-104 131 -183 125 -328 -3 -85 -8 -105 -37 -164 -42 -85 -127 -168 -214 -209
-79 -36 -205 -53 -356 -47 -98 5 -106 6 -128 32 -28 33 -29 66 -4 97 18 23 26
24 193 29 151 5 179 9 224 28 182 81 224 312 84 452 -65 65 -115 82 -253 88
-111 4 -119 6 -137 30 -25 31 -25 63 -1 93 18 22 29 24 139 30 103 5 129 10
176 33 221 108 210 413 -20 513 -28 12 -77 18 -179 21 -124 4 -143 6 -162 25
-30 27 -30 73 -1 105 23 23 25 24 189 20 l165 -3 75 -37z m-182 -322 c32 -29
29 -88 -5 -115 -25 -20 -39 -21 -250 -21 l-224 0 0 -290 0 -290 177 0 c168 0
178 -1 200 -22 30 -28 30 -74 1 -105 -21 -22 -26 -23 -200 -23 l-178 0 0 -154
c0 -140 -2 -156 -21 -180 -26 -33 -79 -36 -109 -6 -20 20 -20 33 -20 625 l0
606 304 -3 c283 -3 305 -4 325 -22z"/>
</g>
</svg>
